<mxfile host="app.diagrams.net" modified="2023-10-23T02:41:23.841Z" agent="Mozilla/5.0 (Macintosh; Intel Mac OS X 10_15_7) AppleWebKit/605.1.15 (KHTML, like Gecko) Version/17.0 Safari/605.1.15" etag="EL9gQXekqOT1ukE5vbJ6" version="22.0.6" type="google">
  <diagram id="5OjhUlmFKpjoIsbaGvIM" name="Page-1">
    <mxGraphModel grid="1" page="1" gridSize="10" guides="1" tooltips="1" connect="1" arrows="1" fold="1" pageScale="1" pageWidth="850" pageHeight="1100" math="0" shadow="0">
      <root>
        <mxCell id="0" />
        <mxCell id="1" parent="0" />
        <mxCell id="4mFQkRXJ37AKGdtGyKTU-3" value="Use Case Diagram" style="shape=umlFrame;whiteSpace=wrap;html=1;width=120;height=30;boundedLbl=1;verticalAlign=middle;align=left;spacingLeft=5;sketch=0;gradientColor=none;movable=0;" vertex="1" parent="1">
          <mxGeometry x="250" y="-260" width="1210" height="1870" as="geometry" />
        </mxCell>
        <mxCell id="4mFQkRXJ37AKGdtGyKTU-55" value="System" style="fontStyle=0;sketch=0;gradientColor=none;fillColor=none;verticalAlign=top;movable=0;" vertex="1" parent="1">
          <mxGeometry x="460" y="-230" width="850" height="1390" as="geometry" />
        </mxCell>
        <mxCell id="4mFQkRXJ37AKGdtGyKTU-22" style="edgeStyle=orthogonalEdgeStyle;rounded=0;orthogonalLoop=1;jettySize=auto;html=1;exitX=0.5;exitY=0.5;exitDx=0;exitDy=0;exitPerimeter=0;entryX=0;entryY=0.5;entryDx=0;entryDy=0;curved=1;" edge="1" parent="1" source="4mFQkRXJ37AKGdtGyKTU-2" target="4mFQkRXJ37AKGdtGyKTU-13">
          <mxGeometry relative="1" as="geometry" />
        </mxCell>
        <mxCell id="4mFQkRXJ37AKGdtGyKTU-23" style="edgeStyle=orthogonalEdgeStyle;curved=1;rounded=0;orthogonalLoop=1;jettySize=auto;html=1;exitX=0.5;exitY=0.5;exitDx=0;exitDy=0;exitPerimeter=0;entryX=0;entryY=0.5;entryDx=0;entryDy=0;" edge="1" parent="1" source="4mFQkRXJ37AKGdtGyKTU-2" target="4mFQkRXJ37AKGdtGyKTU-7">
          <mxGeometry relative="1" as="geometry" />
        </mxCell>
        <mxCell id="4mFQkRXJ37AKGdtGyKTU-24" style="edgeStyle=orthogonalEdgeStyle;curved=1;rounded=0;orthogonalLoop=1;jettySize=auto;html=1;exitX=0.5;exitY=0.5;exitDx=0;exitDy=0;exitPerimeter=0;entryX=0;entryY=0.5;entryDx=0;entryDy=0;" edge="1" parent="1" source="4mFQkRXJ37AKGdtGyKTU-2" target="4mFQkRXJ37AKGdtGyKTU-17">
          <mxGeometry relative="1" as="geometry" />
        </mxCell>
        <mxCell id="4mFQkRXJ37AKGdtGyKTU-25" style="edgeStyle=orthogonalEdgeStyle;curved=1;rounded=0;orthogonalLoop=1;jettySize=auto;html=1;exitX=0.5;exitY=0.5;exitDx=0;exitDy=0;exitPerimeter=0;entryX=0;entryY=0.5;entryDx=0;entryDy=0;" edge="1" parent="1" source="4mFQkRXJ37AKGdtGyKTU-2" target="4mFQkRXJ37AKGdtGyKTU-9">
          <mxGeometry relative="1" as="geometry" />
        </mxCell>
        <mxCell id="4mFQkRXJ37AKGdtGyKTU-26" style="edgeStyle=orthogonalEdgeStyle;curved=1;rounded=0;orthogonalLoop=1;jettySize=auto;html=1;exitX=0.5;exitY=0.5;exitDx=0;exitDy=0;exitPerimeter=0;entryX=0;entryY=0.5;entryDx=0;entryDy=0;" edge="1" parent="1" source="4mFQkRXJ37AKGdtGyKTU-2" target="4mFQkRXJ37AKGdtGyKTU-8">
          <mxGeometry relative="1" as="geometry" />
        </mxCell>
        <mxCell id="4mFQkRXJ37AKGdtGyKTU-28" style="edgeStyle=orthogonalEdgeStyle;curved=1;rounded=0;orthogonalLoop=1;jettySize=auto;html=1;exitX=0.5;exitY=0.5;exitDx=0;exitDy=0;exitPerimeter=0;entryX=0;entryY=0.5;entryDx=0;entryDy=0;" edge="1" parent="1" source="4mFQkRXJ37AKGdtGyKTU-2" target="4mFQkRXJ37AKGdtGyKTU-12">
          <mxGeometry relative="1" as="geometry" />
        </mxCell>
        <mxCell id="4mFQkRXJ37AKGdtGyKTU-29" style="edgeStyle=orthogonalEdgeStyle;curved=1;rounded=0;orthogonalLoop=1;jettySize=auto;html=1;exitX=0.5;exitY=0.5;exitDx=0;exitDy=0;exitPerimeter=0;entryX=0;entryY=0.5;entryDx=0;entryDy=0;" edge="1" parent="1" source="4mFQkRXJ37AKGdtGyKTU-2" target="4mFQkRXJ37AKGdtGyKTU-4">
          <mxGeometry relative="1" as="geometry" />
        </mxCell>
        <mxCell id="4mFQkRXJ37AKGdtGyKTU-30" style="edgeStyle=orthogonalEdgeStyle;curved=1;rounded=0;orthogonalLoop=1;jettySize=auto;html=1;exitX=0.5;exitY=0.5;exitDx=0;exitDy=0;exitPerimeter=0;entryX=0;entryY=0.5;entryDx=0;entryDy=0;" edge="1" parent="1" source="4mFQkRXJ37AKGdtGyKTU-2" target="4mFQkRXJ37AKGdtGyKTU-18">
          <mxGeometry relative="1" as="geometry" />
        </mxCell>
        <mxCell id="4mFQkRXJ37AKGdtGyKTU-31" style="edgeStyle=orthogonalEdgeStyle;curved=1;rounded=0;orthogonalLoop=1;jettySize=auto;html=1;exitX=0.5;exitY=0.5;exitDx=0;exitDy=0;exitPerimeter=0;entryX=0;entryY=0.5;entryDx=0;entryDy=0;" edge="1" parent="1" source="4mFQkRXJ37AKGdtGyKTU-2" target="4mFQkRXJ37AKGdtGyKTU-15">
          <mxGeometry relative="1" as="geometry" />
        </mxCell>
        <mxCell id="4mFQkRXJ37AKGdtGyKTU-32" style="edgeStyle=orthogonalEdgeStyle;curved=1;rounded=0;orthogonalLoop=1;jettySize=auto;html=1;exitX=0.5;exitY=0.5;exitDx=0;exitDy=0;exitPerimeter=0;entryX=0;entryY=0.5;entryDx=0;entryDy=0;" edge="1" parent="1" source="4mFQkRXJ37AKGdtGyKTU-2" target="4mFQkRXJ37AKGdtGyKTU-11">
          <mxGeometry relative="1" as="geometry" />
        </mxCell>
        <mxCell id="4mFQkRXJ37AKGdtGyKTU-33" style="edgeStyle=orthogonalEdgeStyle;curved=1;rounded=0;orthogonalLoop=1;jettySize=auto;html=1;exitX=0.5;exitY=0.5;exitDx=0;exitDy=0;exitPerimeter=0;entryX=0;entryY=0.5;entryDx=0;entryDy=0;" edge="1" parent="1" source="4mFQkRXJ37AKGdtGyKTU-2" target="4mFQkRXJ37AKGdtGyKTU-16">
          <mxGeometry relative="1" as="geometry" />
        </mxCell>
        <mxCell id="4mFQkRXJ37AKGdtGyKTU-115" style="edgeStyle=orthogonalEdgeStyle;curved=1;rounded=0;orthogonalLoop=1;jettySize=auto;html=1;exitX=0.5;exitY=0.5;exitDx=0;exitDy=0;exitPerimeter=0;entryX=0;entryY=0.5;entryDx=0;entryDy=0;" edge="1" parent="1" source="4mFQkRXJ37AKGdtGyKTU-2" target="4mFQkRXJ37AKGdtGyKTU-114">
          <mxGeometry relative="1" as="geometry" />
        </mxCell>
        <mxCell id="4mFQkRXJ37AKGdtGyKTU-137" style="edgeStyle=orthogonalEdgeStyle;curved=1;rounded=0;orthogonalLoop=1;jettySize=auto;html=1;exitX=0.5;exitY=0.5;exitDx=0;exitDy=0;exitPerimeter=0;entryX=0;entryY=0.5;entryDx=0;entryDy=0;" edge="1" parent="1" source="4mFQkRXJ37AKGdtGyKTU-2" target="4mFQkRXJ37AKGdtGyKTU-136">
          <mxGeometry relative="1" as="geometry" />
        </mxCell>
        <mxCell id="4mFQkRXJ37AKGdtGyKTU-2" value="Insurer/Insured" style="shape=umlActor;verticalLabelPosition=bottom;verticalAlign=top;html=1;sketch=0;gradientColor=none;" vertex="1" parent="1">
          <mxGeometry x="280" y="480" width="30" height="60" as="geometry" />
        </mxCell>
        <mxCell id="4mFQkRXJ37AKGdtGyKTU-4" value="Place policy requirements to fill" style="ellipse;whiteSpace=wrap;html=1;sketch=0;gradientColor=none;" vertex="1" parent="1">
          <mxGeometry x="520" y="650" width="140" height="70" as="geometry" />
        </mxCell>
        <mxCell id="4mFQkRXJ37AKGdtGyKTU-5" value="Login" style="ellipse;whiteSpace=wrap;html=1;sketch=0;gradientColor=none;" vertex="1" parent="1">
          <mxGeometry x="850" y="510" width="140" height="70" as="geometry" />
        </mxCell>
        <mxCell id="4mFQkRXJ37AKGdtGyKTU-7" value="View/Update Account Preferences" style="ellipse;whiteSpace=wrap;html=1;sketch=0;gradientColor=none;" vertex="1" parent="1">
          <mxGeometry x="520" y="170" width="140" height="70" as="geometry" />
        </mxCell>
        <mxCell id="4mFQkRXJ37AKGdtGyKTU-8" value="Withdrawl Money" style="ellipse;whiteSpace=wrap;html=1;sketch=0;gradientColor=none;" vertex="1" parent="1">
          <mxGeometry x="520" y="410" width="140" height="70" as="geometry" />
        </mxCell>
        <mxCell id="4mFQkRXJ37AKGdtGyKTU-9" value="Deposit Money" style="ellipse;whiteSpace=wrap;html=1;sketch=0;gradientColor=none;" vertex="1" parent="1">
          <mxGeometry x="520" y="330" width="140" height="70" as="geometry" />
        </mxCell>
        <mxCell id="4mFQkRXJ37AKGdtGyKTU-11" value="View/Update Insurance Bot" style="ellipse;whiteSpace=wrap;html=1;sketch=0;gradientColor=none;" vertex="1" parent="1">
          <mxGeometry x="520" y="970" width="140" height="70" as="geometry" />
        </mxCell>
        <mxCell id="4mFQkRXJ37AKGdtGyKTU-12" value="View Perils by City" style="ellipse;whiteSpace=wrap;html=1;sketch=0;gradientColor=none;" vertex="1" parent="1">
          <mxGeometry x="520" y="570" width="140" height="70" as="geometry" />
        </mxCell>
        <mxCell id="4mFQkRXJ37AKGdtGyKTU-13" value="Create Account" style="ellipse;whiteSpace=wrap;html=1;sketch=0;gradientColor=none;" vertex="1" parent="1">
          <mxGeometry x="520" y="90" width="140" height="70" as="geometry" />
        </mxCell>
        <mxCell id="4mFQkRXJ37AKGdtGyKTU-15" value="Create Insurance &amp;nbsp;Bot" style="ellipse;whiteSpace=wrap;html=1;sketch=0;gradientColor=none;" vertex="1" parent="1">
          <mxGeometry x="520" y="890" width="140" height="70" as="geometry" />
        </mxCell>
        <mxCell id="4mFQkRXJ37AKGdtGyKTU-16" value="Delete Insurance Bot" style="ellipse;whiteSpace=wrap;html=1;sketch=0;gradientColor=none;" vertex="1" parent="1">
          <mxGeometry x="520" y="1050" width="140" height="70" as="geometry" />
        </mxCell>
        <mxCell id="4mFQkRXJ37AKGdtGyKTU-17" value="Delete Account" style="ellipse;whiteSpace=wrap;html=1;sketch=0;gradientColor=none;" vertex="1" parent="1">
          <mxGeometry x="520" y="250" width="140" height="70" as="geometry" />
        </mxCell>
        <mxCell id="4mFQkRXJ37AKGdtGyKTU-18" value="View/Cancel Placed Policy" style="ellipse;whiteSpace=wrap;html=1;sketch=0;gradientColor=none;" vertex="1" parent="1">
          <mxGeometry x="520" y="730" width="140" height="70" as="geometry" />
        </mxCell>
        <mxCell id="4mFQkRXJ37AKGdtGyKTU-34" value="&amp;lt;&amp;lt;includes&amp;gt;&amp;gt;" style="endArrow=open;html=1;rounded=0;align=center;verticalAlign=bottom;dashed=1;endFill=0;labelBackgroundColor=none;curved=1;exitX=1;exitY=0.5;exitDx=0;exitDy=0;entryX=0;entryY=1;entryDx=0;entryDy=0;" edge="1" parent="1" source="4mFQkRXJ37AKGdtGyKTU-15" target="4mFQkRXJ37AKGdtGyKTU-5">
          <mxGeometry relative="1" as="geometry">
            <mxPoint x="700" y="820" as="sourcePoint" />
            <mxPoint x="860" y="820" as="targetPoint" />
          </mxGeometry>
        </mxCell>
        <mxCell id="4mFQkRXJ37AKGdtGyKTU-35" value="" style="resizable=0;html=1;align=center;verticalAlign=top;labelBackgroundColor=none;sketch=0;gradientColor=none;" connectable="0" vertex="1" parent="4mFQkRXJ37AKGdtGyKTU-34">
          <mxGeometry relative="1" as="geometry" />
        </mxCell>
        <mxCell id="4mFQkRXJ37AKGdtGyKTU-36" value="&amp;lt;&amp;lt;includes&amp;gt;&amp;gt;" style="endArrow=open;html=1;rounded=0;align=center;verticalAlign=bottom;dashed=1;endFill=0;labelBackgroundColor=none;curved=1;exitX=1;exitY=0.5;exitDx=0;exitDy=0;entryX=0;entryY=1;entryDx=0;entryDy=0;" edge="1" parent="1" source="4mFQkRXJ37AKGdtGyKTU-18" target="4mFQkRXJ37AKGdtGyKTU-5">
          <mxGeometry relative="1" as="geometry">
            <mxPoint x="670" y="875" as="sourcePoint" />
            <mxPoint x="860" y="555" as="targetPoint" />
          </mxGeometry>
        </mxCell>
        <mxCell id="4mFQkRXJ37AKGdtGyKTU-37" value="" style="resizable=0;html=1;align=center;verticalAlign=top;labelBackgroundColor=none;sketch=0;gradientColor=none;" connectable="0" vertex="1" parent="4mFQkRXJ37AKGdtGyKTU-36">
          <mxGeometry relative="1" as="geometry" />
        </mxCell>
        <mxCell id="4mFQkRXJ37AKGdtGyKTU-38" value="&amp;lt;&amp;lt;includes&amp;gt;&amp;gt;" style="endArrow=open;html=1;rounded=0;align=center;verticalAlign=bottom;dashed=1;endFill=0;labelBackgroundColor=none;curved=1;exitX=1;exitY=0.5;exitDx=0;exitDy=0;entryX=0;entryY=0;entryDx=0;entryDy=0;" edge="1" parent="1" source="4mFQkRXJ37AKGdtGyKTU-9" target="4mFQkRXJ37AKGdtGyKTU-5">
          <mxGeometry relative="1" as="geometry">
            <mxPoint x="670" y="775" as="sourcePoint" />
            <mxPoint x="860" y="555" as="targetPoint" />
          </mxGeometry>
        </mxCell>
        <mxCell id="4mFQkRXJ37AKGdtGyKTU-39" value="" style="resizable=0;html=1;align=center;verticalAlign=top;labelBackgroundColor=none;sketch=0;gradientColor=none;" connectable="0" vertex="1" parent="4mFQkRXJ37AKGdtGyKTU-38">
          <mxGeometry relative="1" as="geometry" />
        </mxCell>
        <mxCell id="4mFQkRXJ37AKGdtGyKTU-40" value="&amp;lt;&amp;lt;includes&amp;gt;&amp;gt;" style="endArrow=open;html=1;rounded=0;align=center;verticalAlign=bottom;dashed=1;endFill=0;labelBackgroundColor=none;curved=1;exitX=1;exitY=0.5;exitDx=0;exitDy=0;entryX=0.5;entryY=0;entryDx=0;entryDy=0;" edge="1" parent="1" source="4mFQkRXJ37AKGdtGyKTU-17" target="4mFQkRXJ37AKGdtGyKTU-5">
          <mxGeometry relative="1" as="geometry">
            <mxPoint x="680" y="785" as="sourcePoint" />
            <mxPoint x="870" y="565" as="targetPoint" />
          </mxGeometry>
        </mxCell>
        <mxCell id="4mFQkRXJ37AKGdtGyKTU-41" value="" style="resizable=0;html=1;align=center;verticalAlign=top;labelBackgroundColor=none;sketch=0;gradientColor=none;" connectable="0" vertex="1" parent="4mFQkRXJ37AKGdtGyKTU-40">
          <mxGeometry relative="1" as="geometry" />
        </mxCell>
        <mxCell id="4mFQkRXJ37AKGdtGyKTU-44" value="&amp;lt;&amp;lt;includes&amp;gt;&amp;gt;" style="endArrow=open;html=1;rounded=0;align=center;verticalAlign=bottom;dashed=1;endFill=0;labelBackgroundColor=none;curved=1;entryX=0;entryY=0;entryDx=0;entryDy=0;exitX=1;exitY=0.5;exitDx=0;exitDy=0;" edge="1" parent="1" source="4mFQkRXJ37AKGdtGyKTU-8" target="4mFQkRXJ37AKGdtGyKTU-5">
          <mxGeometry relative="1" as="geometry">
            <mxPoint x="660" y="605" as="sourcePoint" />
            <mxPoint x="890" y="585" as="targetPoint" />
          </mxGeometry>
        </mxCell>
        <mxCell id="4mFQkRXJ37AKGdtGyKTU-45" value="" style="resizable=0;html=1;align=center;verticalAlign=top;labelBackgroundColor=none;sketch=0;gradientColor=none;" connectable="0" vertex="1" parent="4mFQkRXJ37AKGdtGyKTU-44">
          <mxGeometry relative="1" as="geometry" />
        </mxCell>
        <mxCell id="4mFQkRXJ37AKGdtGyKTU-46" value="&amp;lt;&amp;lt;includes&amp;gt;&amp;gt;" style="endArrow=open;html=1;rounded=0;align=center;verticalAlign=bottom;dashed=1;endFill=0;labelBackgroundColor=none;curved=1;exitX=1;exitY=0.5;exitDx=0;exitDy=0;entryX=0;entryY=1;entryDx=0;entryDy=0;" edge="1" parent="1" source="4mFQkRXJ37AKGdtGyKTU-4" target="4mFQkRXJ37AKGdtGyKTU-5">
          <mxGeometry relative="1" as="geometry">
            <mxPoint x="710" y="815" as="sourcePoint" />
            <mxPoint x="900" y="595" as="targetPoint" />
          </mxGeometry>
        </mxCell>
        <mxCell id="4mFQkRXJ37AKGdtGyKTU-47" value="" style="resizable=0;html=1;align=center;verticalAlign=top;labelBackgroundColor=none;sketch=0;gradientColor=none;" connectable="0" vertex="1" parent="4mFQkRXJ37AKGdtGyKTU-46">
          <mxGeometry relative="1" as="geometry" />
        </mxCell>
        <mxCell id="4mFQkRXJ37AKGdtGyKTU-48" value="&amp;lt;&amp;lt;includes&amp;gt;&amp;gt;" style="endArrow=open;html=1;rounded=0;align=center;verticalAlign=bottom;dashed=1;endFill=0;labelBackgroundColor=none;curved=1;exitX=1;exitY=0.5;exitDx=0;exitDy=0;entryX=0.5;entryY=1;entryDx=0;entryDy=0;" edge="1" parent="1" source="4mFQkRXJ37AKGdtGyKTU-11" target="4mFQkRXJ37AKGdtGyKTU-5">
          <mxGeometry relative="1" as="geometry">
            <mxPoint x="720" y="825" as="sourcePoint" />
            <mxPoint x="910" y="605" as="targetPoint" />
          </mxGeometry>
        </mxCell>
        <mxCell id="4mFQkRXJ37AKGdtGyKTU-49" value="" style="resizable=0;html=1;align=center;verticalAlign=top;labelBackgroundColor=none;sketch=0;gradientColor=none;" connectable="0" vertex="1" parent="4mFQkRXJ37AKGdtGyKTU-48">
          <mxGeometry relative="1" as="geometry" />
        </mxCell>
        <mxCell id="4mFQkRXJ37AKGdtGyKTU-50" value="&amp;lt;&amp;lt;includes&amp;gt;&amp;gt;" style="endArrow=open;html=1;rounded=0;align=center;verticalAlign=bottom;dashed=1;endFill=0;labelBackgroundColor=none;curved=1;entryX=0.5;entryY=1;entryDx=0;entryDy=0;exitX=1;exitY=0.5;exitDx=0;exitDy=0;" edge="1" parent="1" source="4mFQkRXJ37AKGdtGyKTU-16" target="4mFQkRXJ37AKGdtGyKTU-5">
          <mxGeometry relative="1" as="geometry">
            <mxPoint x="730" y="835" as="sourcePoint" />
            <mxPoint x="920" y="615" as="targetPoint" />
          </mxGeometry>
        </mxCell>
        <mxCell id="4mFQkRXJ37AKGdtGyKTU-51" value="" style="resizable=0;html=1;align=center;verticalAlign=top;labelBackgroundColor=none;sketch=0;gradientColor=none;" connectable="0" vertex="1" parent="4mFQkRXJ37AKGdtGyKTU-50">
          <mxGeometry relative="1" as="geometry" />
        </mxCell>
        <mxCell id="4mFQkRXJ37AKGdtGyKTU-52" value="&amp;lt;&amp;lt;includes&amp;gt;&amp;gt;" style="endArrow=open;html=1;rounded=0;align=center;verticalAlign=bottom;dashed=1;endFill=0;labelBackgroundColor=none;curved=1;exitX=1;exitY=0.5;exitDx=0;exitDy=0;" edge="1" parent="1" source="4mFQkRXJ37AKGdtGyKTU-7">
          <mxGeometry relative="1" as="geometry">
            <mxPoint x="670" y="295" as="sourcePoint" />
            <mxPoint x="920" y="510" as="targetPoint" />
          </mxGeometry>
        </mxCell>
        <mxCell id="4mFQkRXJ37AKGdtGyKTU-53" value="" style="resizable=0;html=1;align=center;verticalAlign=top;labelBackgroundColor=none;sketch=0;gradientColor=none;" connectable="0" vertex="1" parent="4mFQkRXJ37AKGdtGyKTU-52">
          <mxGeometry relative="1" as="geometry" />
        </mxCell>
        <mxCell id="4mFQkRXJ37AKGdtGyKTU-59" style="edgeStyle=orthogonalEdgeStyle;curved=1;rounded=0;orthogonalLoop=1;jettySize=auto;html=1;exitX=0.5;exitY=0.5;exitDx=0;exitDy=0;exitPerimeter=0;entryX=1;entryY=0.5;entryDx=0;entryDy=0;" edge="1" parent="1" source="4mFQkRXJ37AKGdtGyKTU-56" target="4mFQkRXJ37AKGdtGyKTU-62">
          <mxGeometry relative="1" as="geometry" />
        </mxCell>
        <mxCell id="4mFQkRXJ37AKGdtGyKTU-60" style="edgeStyle=orthogonalEdgeStyle;curved=1;rounded=0;orthogonalLoop=1;jettySize=auto;html=1;exitX=0.5;exitY=0.5;exitDx=0;exitDy=0;exitPerimeter=0;entryX=1;entryY=0.5;entryDx=0;entryDy=0;" edge="1" parent="1" source="4mFQkRXJ37AKGdtGyKTU-56" target="4mFQkRXJ37AKGdtGyKTU-64">
          <mxGeometry relative="1" as="geometry" />
        </mxCell>
        <mxCell id="4mFQkRXJ37AKGdtGyKTU-65" style="edgeStyle=orthogonalEdgeStyle;curved=1;rounded=0;orthogonalLoop=1;jettySize=auto;html=1;exitX=0.5;exitY=0.5;exitDx=0;exitDy=0;exitPerimeter=0;entryX=1;entryY=0.5;entryDx=0;entryDy=0;" edge="1" parent="1" source="4mFQkRXJ37AKGdtGyKTU-56" target="4mFQkRXJ37AKGdtGyKTU-61">
          <mxGeometry relative="1" as="geometry" />
        </mxCell>
        <mxCell id="4mFQkRXJ37AKGdtGyKTU-81" style="edgeStyle=orthogonalEdgeStyle;curved=1;rounded=0;orthogonalLoop=1;jettySize=auto;html=1;exitX=0.5;exitY=0.5;exitDx=0;exitDy=0;exitPerimeter=0;entryX=1;entryY=0.5;entryDx=0;entryDy=0;" edge="1" parent="1" source="4mFQkRXJ37AKGdtGyKTU-56" target="4mFQkRXJ37AKGdtGyKTU-66">
          <mxGeometry relative="1" as="geometry" />
        </mxCell>
        <mxCell id="4mFQkRXJ37AKGdtGyKTU-82" style="edgeStyle=orthogonalEdgeStyle;curved=1;rounded=0;orthogonalLoop=1;jettySize=auto;html=1;exitX=0.5;exitY=0.5;exitDx=0;exitDy=0;exitPerimeter=0;entryX=1;entryY=0.5;entryDx=0;entryDy=0;" edge="1" parent="1" source="4mFQkRXJ37AKGdtGyKTU-56" target="4mFQkRXJ37AKGdtGyKTU-67">
          <mxGeometry relative="1" as="geometry" />
        </mxCell>
        <mxCell id="4mFQkRXJ37AKGdtGyKTU-83" style="edgeStyle=orthogonalEdgeStyle;curved=1;rounded=0;orthogonalLoop=1;jettySize=auto;html=1;exitX=0.5;exitY=0.5;exitDx=0;exitDy=0;exitPerimeter=0;entryX=1;entryY=0.5;entryDx=0;entryDy=0;" edge="1" parent="1" source="4mFQkRXJ37AKGdtGyKTU-56" target="4mFQkRXJ37AKGdtGyKTU-75">
          <mxGeometry relative="1" as="geometry" />
        </mxCell>
        <mxCell id="4mFQkRXJ37AKGdtGyKTU-86" style="edgeStyle=orthogonalEdgeStyle;curved=1;rounded=0;orthogonalLoop=1;jettySize=auto;html=1;exitX=0.5;exitY=0.5;exitDx=0;exitDy=0;exitPerimeter=0;entryX=1;entryY=0.5;entryDx=0;entryDy=0;" edge="1" parent="1" source="4mFQkRXJ37AKGdtGyKTU-56" target="4mFQkRXJ37AKGdtGyKTU-79">
          <mxGeometry relative="1" as="geometry" />
        </mxCell>
        <mxCell id="4mFQkRXJ37AKGdtGyKTU-87" style="edgeStyle=orthogonalEdgeStyle;curved=1;rounded=0;orthogonalLoop=1;jettySize=auto;html=1;exitX=0.5;exitY=0.5;exitDx=0;exitDy=0;exitPerimeter=0;entryX=1;entryY=0.5;entryDx=0;entryDy=0;" edge="1" parent="1" source="4mFQkRXJ37AKGdtGyKTU-56" target="4mFQkRXJ37AKGdtGyKTU-80">
          <mxGeometry relative="1" as="geometry" />
        </mxCell>
        <mxCell id="4mFQkRXJ37AKGdtGyKTU-118" style="edgeStyle=orthogonalEdgeStyle;curved=1;rounded=0;orthogonalLoop=1;jettySize=auto;html=1;exitX=0.5;exitY=0.5;exitDx=0;exitDy=0;exitPerimeter=0;entryX=1;entryY=0.5;entryDx=0;entryDy=0;" edge="1" parent="1" source="4mFQkRXJ37AKGdtGyKTU-56" target="4mFQkRXJ37AKGdtGyKTU-117">
          <mxGeometry relative="1" as="geometry" />
        </mxCell>
        <mxCell id="4mFQkRXJ37AKGdtGyKTU-126" style="edgeStyle=orthogonalEdgeStyle;curved=1;rounded=0;orthogonalLoop=1;jettySize=auto;html=1;exitX=0.5;exitY=0.5;exitDx=0;exitDy=0;exitPerimeter=0;entryX=1;entryY=0.5;entryDx=0;entryDy=0;" edge="1" parent="1" source="4mFQkRXJ37AKGdtGyKTU-56" target="4mFQkRXJ37AKGdtGyKTU-124">
          <mxGeometry relative="1" as="geometry" />
        </mxCell>
        <mxCell id="4mFQkRXJ37AKGdtGyKTU-128" style="edgeStyle=orthogonalEdgeStyle;curved=1;rounded=0;orthogonalLoop=1;jettySize=auto;html=1;exitX=0.5;exitY=0.5;exitDx=0;exitDy=0;exitPerimeter=0;entryX=1;entryY=0.5;entryDx=0;entryDy=0;" edge="1" parent="1" source="4mFQkRXJ37AKGdtGyKTU-56" target="4mFQkRXJ37AKGdtGyKTU-123">
          <mxGeometry relative="1" as="geometry" />
        </mxCell>
        <mxCell id="4mFQkRXJ37AKGdtGyKTU-129" style="edgeStyle=orthogonalEdgeStyle;curved=1;rounded=0;orthogonalLoop=1;jettySize=auto;html=1;exitX=0.5;exitY=0.5;exitDx=0;exitDy=0;exitPerimeter=0;entryX=1;entryY=0.5;entryDx=0;entryDy=0;" edge="1" parent="1" source="4mFQkRXJ37AKGdtGyKTU-56" target="4mFQkRXJ37AKGdtGyKTU-125">
          <mxGeometry relative="1" as="geometry" />
        </mxCell>
        <mxCell id="4mFQkRXJ37AKGdtGyKTU-139" style="edgeStyle=orthogonalEdgeStyle;curved=1;rounded=0;orthogonalLoop=1;jettySize=auto;html=1;exitX=0.5;exitY=0.5;exitDx=0;exitDy=0;exitPerimeter=0;entryX=1;entryY=0.5;entryDx=0;entryDy=0;" edge="1" parent="1" source="4mFQkRXJ37AKGdtGyKTU-56" target="4mFQkRXJ37AKGdtGyKTU-138">
          <mxGeometry relative="1" as="geometry" />
        </mxCell>
        <mxCell id="4mFQkRXJ37AKGdtGyKTU-56" value="System Staff" style="shape=umlActor;verticalLabelPosition=bottom;verticalAlign=top;html=1;sketch=0;gradientColor=none;" vertex="1" parent="1">
          <mxGeometry x="1380" y="510" width="30" height="60" as="geometry" />
        </mxCell>
        <mxCell id="4mFQkRXJ37AKGdtGyKTU-61" value="View Perils by City" style="ellipse;whiteSpace=wrap;html=1;sketch=0;gradientColor=none;" vertex="1" parent="1">
          <mxGeometry x="1120" y="570" width="140" height="70" as="geometry" />
        </mxCell>
        <mxCell id="4mFQkRXJ37AKGdtGyKTU-62" value="View/Override User&#39;s Account Preferences" style="ellipse;whiteSpace=wrap;html=1;sketch=0;gradientColor=none;" vertex="1" parent="1">
          <mxGeometry x="1120" y="170" width="140" height="70" as="geometry" />
        </mxCell>
        <mxCell id="4mFQkRXJ37AKGdtGyKTU-64" value="Delete User&#39;s Account" style="ellipse;whiteSpace=wrap;html=1;sketch=0;gradientColor=none;" vertex="1" parent="1">
          <mxGeometry x="1120" y="250" width="140" height="70" as="geometry" />
        </mxCell>
        <mxCell id="4mFQkRXJ37AKGdtGyKTU-66" value="View/Cancel User&#39;s Policy" style="ellipse;whiteSpace=wrap;html=1;sketch=0;gradientColor=none;" vertex="1" parent="1">
          <mxGeometry x="1120" y="730" width="140" height="70" as="geometry" />
        </mxCell>
        <mxCell id="4mFQkRXJ37AKGdtGyKTU-67" value="View/Override User&#39;s Insurance Bots" style="ellipse;whiteSpace=wrap;html=1;sketch=0;gradientColor=none;" vertex="1" parent="1">
          <mxGeometry x="1120" y="970" width="140" height="70" as="geometry" />
        </mxCell>
        <mxCell id="4mFQkRXJ37AKGdtGyKTU-75" value="Delete User&#39;s Insurance Bot" style="ellipse;whiteSpace=wrap;html=1;sketch=0;gradientColor=none;" vertex="1" parent="1">
          <mxGeometry x="1120" y="1050" width="140" height="70" as="geometry" />
        </mxCell>
        <mxCell id="4mFQkRXJ37AKGdtGyKTU-79" value="View/Cacnel User&#39;s Deposit Money Request" style="ellipse;whiteSpace=wrap;html=1;sketch=0;gradientColor=none;" vertex="1" parent="1">
          <mxGeometry x="1120" y="330" width="140" height="70" as="geometry" />
        </mxCell>
        <mxCell id="4mFQkRXJ37AKGdtGyKTU-80" value="View/Cancel User&#39;s Withdrawal Money Request" style="ellipse;whiteSpace=wrap;html=1;sketch=0;gradientColor=none;" vertex="1" parent="1">
          <mxGeometry x="1120" y="410" width="140" height="70" as="geometry" />
        </mxCell>
        <mxCell id="4mFQkRXJ37AKGdtGyKTU-88" value="&amp;lt;&amp;lt;includes&amp;gt;&amp;gt;" style="endArrow=open;html=1;rounded=0;align=center;verticalAlign=bottom;dashed=1;endFill=0;labelBackgroundColor=none;curved=1;exitX=0;exitY=0.5;exitDx=0;exitDy=0;entryX=0.5;entryY=0;entryDx=0;entryDy=0;" edge="1" parent="1" source="4mFQkRXJ37AKGdtGyKTU-62" target="4mFQkRXJ37AKGdtGyKTU-5">
          <mxGeometry relative="1" as="geometry">
            <mxPoint x="670" y="215" as="sourcePoint" />
            <mxPoint x="979.4974746830585" y="530.2512626584708" as="targetPoint" />
          </mxGeometry>
        </mxCell>
        <mxCell id="4mFQkRXJ37AKGdtGyKTU-89" value="" style="resizable=0;html=1;align=center;verticalAlign=top;labelBackgroundColor=none;sketch=0;gradientColor=none;" connectable="0" vertex="1" parent="4mFQkRXJ37AKGdtGyKTU-88">
          <mxGeometry relative="1" as="geometry" />
        </mxCell>
        <mxCell id="4mFQkRXJ37AKGdtGyKTU-90" value="&amp;lt;&amp;lt;includes&amp;gt;&amp;gt;" style="endArrow=open;html=1;rounded=0;align=center;verticalAlign=bottom;dashed=1;endFill=0;labelBackgroundColor=none;curved=1;exitX=0;exitY=0.5;exitDx=0;exitDy=0;entryX=0.5;entryY=0;entryDx=0;entryDy=0;" edge="1" parent="1" source="4mFQkRXJ37AKGdtGyKTU-64" target="4mFQkRXJ37AKGdtGyKTU-5">
          <mxGeometry relative="1" as="geometry">
            <mxPoint x="1130" y="215" as="sourcePoint" />
            <mxPoint x="989.4974746830585" y="540.2512626584708" as="targetPoint" />
          </mxGeometry>
        </mxCell>
        <mxCell id="4mFQkRXJ37AKGdtGyKTU-91" value="" style="resizable=0;html=1;align=center;verticalAlign=top;labelBackgroundColor=none;sketch=0;gradientColor=none;" connectable="0" vertex="1" parent="4mFQkRXJ37AKGdtGyKTU-90">
          <mxGeometry relative="1" as="geometry" />
        </mxCell>
        <mxCell id="4mFQkRXJ37AKGdtGyKTU-92" value="&amp;lt;&amp;lt;includes&amp;gt;&amp;gt;" style="endArrow=open;html=1;rounded=0;align=center;verticalAlign=bottom;dashed=1;endFill=0;labelBackgroundColor=none;curved=1;exitX=0;exitY=0.5;exitDx=0;exitDy=0;entryX=1;entryY=0;entryDx=0;entryDy=0;" edge="1" parent="1" source="4mFQkRXJ37AKGdtGyKTU-79" target="4mFQkRXJ37AKGdtGyKTU-5">
          <mxGeometry relative="1" as="geometry">
            <mxPoint x="1130" y="295" as="sourcePoint" />
            <mxPoint x="930" y="520" as="targetPoint" />
          </mxGeometry>
        </mxCell>
        <mxCell id="4mFQkRXJ37AKGdtGyKTU-93" value="" style="resizable=0;html=1;align=center;verticalAlign=top;labelBackgroundColor=none;sketch=0;gradientColor=none;" connectable="0" vertex="1" parent="4mFQkRXJ37AKGdtGyKTU-92">
          <mxGeometry relative="1" as="geometry" />
        </mxCell>
        <mxCell id="4mFQkRXJ37AKGdtGyKTU-94" value="&amp;lt;&amp;lt;includes&amp;gt;&amp;gt;" style="endArrow=open;html=1;rounded=0;align=center;verticalAlign=bottom;dashed=1;endFill=0;labelBackgroundColor=none;curved=1;exitX=0;exitY=0.5;exitDx=0;exitDy=0;entryX=1;entryY=0;entryDx=0;entryDy=0;" edge="1" parent="1" source="4mFQkRXJ37AKGdtGyKTU-80" target="4mFQkRXJ37AKGdtGyKTU-5">
          <mxGeometry relative="1" as="geometry">
            <mxPoint x="1130" y="375" as="sourcePoint" />
            <mxPoint x="979.4974746830585" y="530.2512626584708" as="targetPoint" />
          </mxGeometry>
        </mxCell>
        <mxCell id="4mFQkRXJ37AKGdtGyKTU-95" value="" style="resizable=0;html=1;align=center;verticalAlign=top;labelBackgroundColor=none;sketch=0;gradientColor=none;" connectable="0" vertex="1" parent="4mFQkRXJ37AKGdtGyKTU-94">
          <mxGeometry relative="1" as="geometry" />
        </mxCell>
        <mxCell id="4mFQkRXJ37AKGdtGyKTU-96" value="&amp;lt;&amp;lt;includes&amp;gt;&amp;gt;" style="endArrow=open;html=1;rounded=0;align=center;verticalAlign=bottom;dashed=1;endFill=0;labelBackgroundColor=none;curved=1;exitX=0;exitY=0.5;exitDx=0;exitDy=0;entryX=1;entryY=0.5;entryDx=0;entryDy=0;" edge="1" parent="1" source="4mFQkRXJ37AKGdtGyKTU-61" target="4mFQkRXJ37AKGdtGyKTU-5">
          <mxGeometry relative="1" as="geometry">
            <mxPoint x="1150.5" y="502.37" as="sourcePoint" />
            <mxPoint x="999.9974746830585" y="577.6212626584708" as="targetPoint" />
          </mxGeometry>
        </mxCell>
        <mxCell id="4mFQkRXJ37AKGdtGyKTU-97" value="" style="resizable=0;html=1;align=center;verticalAlign=top;labelBackgroundColor=none;sketch=0;gradientColor=none;" connectable="0" vertex="1" parent="4mFQkRXJ37AKGdtGyKTU-96">
          <mxGeometry relative="1" as="geometry" />
        </mxCell>
        <mxCell id="4mFQkRXJ37AKGdtGyKTU-98" value="&amp;lt;&amp;lt;includes&amp;gt;&amp;gt;" style="endArrow=open;html=1;rounded=0;align=center;verticalAlign=bottom;dashed=1;endFill=0;labelBackgroundColor=none;curved=1;exitX=0;exitY=0.5;exitDx=0;exitDy=0;entryX=1;entryY=1;entryDx=0;entryDy=0;" edge="1" parent="1" source="4mFQkRXJ37AKGdtGyKTU-66" target="4mFQkRXJ37AKGdtGyKTU-5">
          <mxGeometry relative="1" as="geometry">
            <mxPoint x="1110" y="720" as="sourcePoint" />
            <mxPoint x="980" y="660" as="targetPoint" />
          </mxGeometry>
        </mxCell>
        <mxCell id="4mFQkRXJ37AKGdtGyKTU-99" value="" style="resizable=0;html=1;align=center;verticalAlign=top;labelBackgroundColor=none;sketch=0;gradientColor=none;" connectable="0" vertex="1" parent="4mFQkRXJ37AKGdtGyKTU-98">
          <mxGeometry relative="1" as="geometry" />
        </mxCell>
        <mxCell id="4mFQkRXJ37AKGdtGyKTU-100" value="&amp;lt;&amp;lt;includes&amp;gt;&amp;gt;" style="endArrow=open;html=1;rounded=0;align=center;verticalAlign=bottom;dashed=1;endFill=0;labelBackgroundColor=none;curved=1;exitX=0;exitY=0.5;exitDx=0;exitDy=0;entryX=0.5;entryY=1;entryDx=0;entryDy=0;" edge="1" parent="1" source="4mFQkRXJ37AKGdtGyKTU-67" target="4mFQkRXJ37AKGdtGyKTU-5">
          <mxGeometry relative="1" as="geometry">
            <mxPoint x="1130" y="775" as="sourcePoint" />
            <mxPoint x="979.4974746830585" y="579.7487373415292" as="targetPoint" />
          </mxGeometry>
        </mxCell>
        <mxCell id="4mFQkRXJ37AKGdtGyKTU-101" value="" style="resizable=0;html=1;align=center;verticalAlign=top;labelBackgroundColor=none;sketch=0;gradientColor=none;" connectable="0" vertex="1" parent="4mFQkRXJ37AKGdtGyKTU-100">
          <mxGeometry relative="1" as="geometry" />
        </mxCell>
        <mxCell id="4mFQkRXJ37AKGdtGyKTU-102" value="&amp;lt;&amp;lt;includes&amp;gt;&amp;gt;" style="endArrow=open;html=1;rounded=0;align=center;verticalAlign=bottom;dashed=1;endFill=0;labelBackgroundColor=none;curved=1;exitX=0;exitY=0.5;exitDx=0;exitDy=0;entryX=0.5;entryY=1;entryDx=0;entryDy=0;" edge="1" parent="1" source="4mFQkRXJ37AKGdtGyKTU-75" target="4mFQkRXJ37AKGdtGyKTU-5">
          <mxGeometry relative="1" as="geometry">
            <mxPoint x="1130" y="975" as="sourcePoint" />
            <mxPoint x="930" y="590" as="targetPoint" />
          </mxGeometry>
        </mxCell>
        <mxCell id="4mFQkRXJ37AKGdtGyKTU-103" value="" style="resizable=0;html=1;align=center;verticalAlign=top;labelBackgroundColor=none;sketch=0;gradientColor=none;" connectable="0" vertex="1" parent="4mFQkRXJ37AKGdtGyKTU-102">
          <mxGeometry relative="1" as="geometry" />
        </mxCell>
        <mxCell id="4mFQkRXJ37AKGdtGyKTU-114" value="Dispute Policy" style="ellipse;whiteSpace=wrap;html=1;sketch=0;gradientColor=none;" vertex="1" parent="1">
          <mxGeometry x="520" y="810" width="140" height="70" as="geometry" />
        </mxCell>
        <mxCell id="4mFQkRXJ37AKGdtGyKTU-116" value="Reverse Policy Payout" style="ellipse;whiteSpace=wrap;html=1;sketch=0;gradientColor=none;" vertex="1" parent="1">
          <mxGeometry x="1120" y="650" width="140" height="70" as="geometry" />
        </mxCell>
        <mxCell id="4mFQkRXJ37AKGdtGyKTU-117" value="Handle Disputed Policy" style="ellipse;whiteSpace=wrap;html=1;sketch=0;gradientColor=none;" vertex="1" parent="1">
          <mxGeometry x="1120" y="810" width="140" height="70" as="geometry" />
        </mxCell>
        <mxCell id="4mFQkRXJ37AKGdtGyKTU-119" value="&amp;lt;&amp;lt;includes&amp;gt;&amp;gt;" style="endArrow=open;html=1;rounded=0;align=center;verticalAlign=bottom;dashed=1;endFill=0;labelBackgroundColor=none;curved=1;exitX=0;exitY=0.5;exitDx=0;exitDy=0;entryX=1;entryY=1;entryDx=0;entryDy=0;" edge="1" parent="1" source="4mFQkRXJ37AKGdtGyKTU-117" target="4mFQkRXJ37AKGdtGyKTU-5">
          <mxGeometry relative="1" as="geometry">
            <mxPoint x="1130" y="775" as="sourcePoint" />
            <mxPoint x="979.4974746830585" y="579.7487373415292" as="targetPoint" />
          </mxGeometry>
        </mxCell>
        <mxCell id="4mFQkRXJ37AKGdtGyKTU-120" value="" style="resizable=0;html=1;align=center;verticalAlign=top;labelBackgroundColor=none;sketch=0;gradientColor=none;" connectable="0" vertex="1" parent="4mFQkRXJ37AKGdtGyKTU-119">
          <mxGeometry relative="1" as="geometry" />
        </mxCell>
        <mxCell id="4mFQkRXJ37AKGdtGyKTU-121" value="&amp;lt;&amp;lt;includes&amp;gt;&amp;gt;" style="endArrow=open;html=1;rounded=0;align=center;verticalAlign=bottom;dashed=1;endFill=0;labelBackgroundColor=none;curved=1;exitX=0;exitY=0.5;exitDx=0;exitDy=0;entryX=1;entryY=0.5;entryDx=0;entryDy=0;" edge="1" parent="1" source="4mFQkRXJ37AKGdtGyKTU-116" target="4mFQkRXJ37AKGdtGyKTU-5">
          <mxGeometry relative="1" as="geometry">
            <mxPoint x="1130" y="855" as="sourcePoint" />
            <mxPoint x="979.4974746830585" y="579.7487373415292" as="targetPoint" />
          </mxGeometry>
        </mxCell>
        <mxCell id="4mFQkRXJ37AKGdtGyKTU-122" value="" style="resizable=0;html=1;align=center;verticalAlign=top;labelBackgroundColor=none;sketch=0;gradientColor=none;" connectable="0" vertex="1" parent="4mFQkRXJ37AKGdtGyKTU-121">
          <mxGeometry relative="1" as="geometry" />
        </mxCell>
        <mxCell id="4mFQkRXJ37AKGdtGyKTU-123" value="View/Override System Staff&#39;s Account Preferences" style="ellipse;whiteSpace=wrap;html=1;sketch=0;gradientColor=none;" vertex="1" parent="1">
          <mxGeometry x="1120" y="-50" width="140" height="70" as="geometry" />
        </mxCell>
        <mxCell id="4mFQkRXJ37AKGdtGyKTU-124" value="Delete System Staff&#39;s Account" style="ellipse;whiteSpace=wrap;html=1;sketch=0;gradientColor=none;" vertex="1" parent="1">
          <mxGeometry x="1120" y="30" width="140" height="70" as="geometry" />
        </mxCell>
        <mxCell id="4mFQkRXJ37AKGdtGyKTU-125" value="Create System Staff Account" style="ellipse;whiteSpace=wrap;html=1;sketch=0;gradientColor=none;" vertex="1" parent="1">
          <mxGeometry x="1120" y="-130" width="140" height="70" as="geometry" />
        </mxCell>
        <mxCell id="4mFQkRXJ37AKGdtGyKTU-130" value="&amp;lt;&amp;lt;includes&amp;gt;&amp;gt;" style="endArrow=open;html=1;rounded=0;align=center;verticalAlign=bottom;dashed=1;endFill=0;labelBackgroundColor=none;curved=1;exitX=0;exitY=0.5;exitDx=0;exitDy=0;entryX=0.5;entryY=0;entryDx=0;entryDy=0;" edge="1" parent="1" source="4mFQkRXJ37AKGdtGyKTU-124" target="4mFQkRXJ37AKGdtGyKTU-5">
          <mxGeometry relative="1" as="geometry">
            <mxPoint x="1130" y="215" as="sourcePoint" />
            <mxPoint x="930" y="520" as="targetPoint" />
          </mxGeometry>
        </mxCell>
        <mxCell id="4mFQkRXJ37AKGdtGyKTU-131" value="" style="resizable=0;html=1;align=center;verticalAlign=top;labelBackgroundColor=none;sketch=0;gradientColor=none;" connectable="0" vertex="1" parent="4mFQkRXJ37AKGdtGyKTU-130">
          <mxGeometry relative="1" as="geometry" />
        </mxCell>
        <mxCell id="4mFQkRXJ37AKGdtGyKTU-132" value="&amp;lt;&amp;lt;includes&amp;gt;&amp;gt;" style="endArrow=open;html=1;rounded=0;align=center;verticalAlign=bottom;dashed=1;endFill=0;labelBackgroundColor=none;curved=1;exitX=0;exitY=0.5;exitDx=0;exitDy=0;entryX=0.5;entryY=0;entryDx=0;entryDy=0;" edge="1" parent="1" source="4mFQkRXJ37AKGdtGyKTU-123" target="4mFQkRXJ37AKGdtGyKTU-5">
          <mxGeometry relative="1" as="geometry">
            <mxPoint x="1130" y="75" as="sourcePoint" />
            <mxPoint x="930" y="520" as="targetPoint" />
          </mxGeometry>
        </mxCell>
        <mxCell id="4mFQkRXJ37AKGdtGyKTU-133" value="" style="resizable=0;html=1;align=center;verticalAlign=top;labelBackgroundColor=none;sketch=0;gradientColor=none;" connectable="0" vertex="1" parent="4mFQkRXJ37AKGdtGyKTU-132">
          <mxGeometry relative="1" as="geometry" />
        </mxCell>
        <mxCell id="4mFQkRXJ37AKGdtGyKTU-134" value="&amp;lt;&amp;lt;includes&amp;gt;&amp;gt;" style="endArrow=open;html=1;rounded=0;align=center;verticalAlign=bottom;dashed=1;endFill=0;labelBackgroundColor=none;curved=1;exitX=0;exitY=0.5;exitDx=0;exitDy=0;entryX=0.5;entryY=0;entryDx=0;entryDy=0;" edge="1" parent="1" source="4mFQkRXJ37AKGdtGyKTU-125" target="4mFQkRXJ37AKGdtGyKTU-5">
          <mxGeometry relative="1" as="geometry">
            <mxPoint x="1130" y="-5" as="sourcePoint" />
            <mxPoint x="930" y="520" as="targetPoint" />
          </mxGeometry>
        </mxCell>
        <mxCell id="4mFQkRXJ37AKGdtGyKTU-135" value="" style="resizable=0;html=1;align=center;verticalAlign=top;labelBackgroundColor=none;sketch=0;gradientColor=none;" connectable="0" vertex="1" parent="4mFQkRXJ37AKGdtGyKTU-134">
          <mxGeometry relative="1" as="geometry" />
        </mxCell>
        <mxCell id="4mFQkRXJ37AKGdtGyKTU-136" value="View FAQ/Announements" style="ellipse;whiteSpace=wrap;html=1;sketch=0;gradientColor=none;" vertex="1" parent="1">
          <mxGeometry x="520" y="-210" width="140" height="70" as="geometry" />
        </mxCell>
        <mxCell id="4mFQkRXJ37AKGdtGyKTU-138" value="View/Override FAQ/Announements" style="ellipse;whiteSpace=wrap;html=1;sketch=0;gradientColor=none;" vertex="1" parent="1">
          <mxGeometry x="1120" y="-210" width="140" height="70" as="geometry" />
        </mxCell>
      </root>
    </mxGraphModel>
  </diagram>
</mxfile>
